<svg width="32" height="32" viewBox="0 0 32 32" fill="none" xmlns="http://www.w3.org/2000/svg"><path d="M28.646 6.242c.756.978 1.387 2.05 1.923 3.185l-14.56 10.75-6.114-3.846v-4.603l6.083 3.815 12.668-9.3z" fill="#21A038"/><path d="M3.687 16.016c0-.22 0-.41.032-.63l-3.687-.19c0 .252-.032.536-.032.788a15.97 15.97 0 004.696 11.318l2.615-2.616a12.12 12.12 0 01-3.624-8.67z" fill="url(#paint0_linear)"/><path d="M15.977 3.72c.221 0 .41 0 .63.032l.19-3.689c-.252 0-.536-.031-.788-.031A15.956 15.956 0 004.696 4.729L7.31 7.346a12.165 12.165 0 018.666-3.626z" fill="url(#paint1_linear)"/><path d="M15.978 28.311c-.221 0-.41 0-.63-.031l-.19 3.688c.252 0 .536.032.788.032 4.412 0 8.414-1.797 11.313-4.698l-2.615-2.616c-2.206 2.27-5.263 3.625-8.666 3.625z" fill="url(#paint2_linear)"/><path d="M22.91 5.864l3.12-2.301A16.001 16.001 0 0015.977 0v3.689c2.585.031 4.98.82 6.934 2.175z" fill="url(#paint3_linear)"/><path d="M31.987 16.016c0-.977-.095-1.923-.252-2.87L28.299 15.7v.316c0 3.626-1.575 6.873-4.065 9.111l2.49 2.743a15.974 15.974 0 005.263-11.854z" fill="#21A038"/><path d="M15.977 28.311c-3.624 0-6.87-1.576-9.107-4.067l-2.742 2.491A15.898 15.898 0 0015.978 32v-3.689z" fill="url(#paint4_linear)"/><path d="M7.752 6.904l-2.49-2.742A15.91 15.91 0 000 16.016h3.687c0-3.594 1.576-6.873 4.065-9.112z" fill="url(#paint5_linear)"/><defs><linearGradient id="paint0_linear" x1="5.454" y1="26.854" x2="1.414" y2="15.179" gradientUnits="userSpaceOnUse"><stop offset=".144" stop-color="#F2E913"/><stop offset=".304" stop-color="#E7E518"/><stop offset=".582" stop-color="#CADB26"/><stop offset=".891" stop-color="#A3CD39"/></linearGradient><linearGradient id="paint1_linear" x1="5.747" y1="5.373" x2="16.146" y2="1.411" gradientUnits="userSpaceOnUse"><stop offset=".059" stop-color="#0FA8E0"/><stop offset=".538" stop-color="#0099F9"/><stop offset=".923" stop-color="#0291EB"/></linearGradient><linearGradient id="paint2_linear" x1="14.942" y1="29.746" x2="26.701" y2="27.09" gradientUnits="userSpaceOnUse"><stop offset=".123" stop-color="#A3CD39"/><stop offset=".285" stop-color="#86C339"/><stop offset=".869" stop-color="#21A038"/></linearGradient><linearGradient id="paint3_linear" x1="15.22" y1="1.244" x2="25.274" y2="4.345" gradientUnits="userSpaceOnUse"><stop offset=".057" stop-color="#0291EB"/><stop offset=".79" stop-color="#0C8ACB"/></linearGradient><linearGradient id="paint4_linear" x1="5.066" y1="26.275" x2="16.011" y2="30.363" gradientUnits="userSpaceOnUse"><stop offset=".132" stop-color="#F2E913"/><stop offset=".298" stop-color="#EBE716"/><stop offset=".531" stop-color="#D9E01F"/><stop offset=".802" stop-color="#BBD62D"/><stop offset=".983" stop-color="#A3CD39"/></linearGradient><linearGradient id="paint5_linear" x1="1.383" y1="16.461" x2="5.779" y2="5.03" gradientUnits="userSpaceOnUse"><stop offset=".07" stop-color="#A3CD39"/><stop offset=".26" stop-color="#81C55F"/><stop offset=".922" stop-color="#0FA8E0"/></linearGradient></defs></svg>