<svg width="128" height="120" viewBox="0 0 128 120" fill="none" xmlns="http://www.w3.org/2000/svg"><g clip-path="url(#clip0)"><path d="M33.6115 0.459526C32.6851 0.84027 31.8109 1.65427 31.3411 2.56018C31.0802 3.07222 31.0019 3.46609 30.9497 4.35887C30.8975 5.42233 30.9236 5.56675 31.2759 6.32824C31.7326 7.29979 32.4241 8.02189 33.3375 8.50767L33.9899 8.86215H44.102H54.2141L54.8665 8.50767C58.0894 6.80088 58.0633 2.16631 54.8274 0.564558L54.0837 0.196944L44.2325 0.170685L34.3813 0.131298L33.6115 0.459526Z" fill="white"/><path d="M11.5082 13.523C5.71495 14.3107 0.939416 19.0634 0.143493 24.8665C-0.0522256 26.2976 -0.0522256 98.1663 0.143493 99.5974C0.574074 102.775 2.41383 106.044 4.85379 107.987C6.6544 109.418 8.28539 110.219 10.5557 110.783C11.3386 110.98 14.1178 111.007 40.9052 111.046C62.3168 111.072 70.6283 111.046 71.2546 110.941C72.8595 110.665 74.2165 109.536 74.6993 108.039C75.0124 107.107 74.9211 105.453 74.5166 104.665C74.073 103.799 73.264 102.985 72.4289 102.578L71.6982 102.21L41.8838 102.144L12.0693 102.079L11.2473 101.632C10.2426 101.081 9.4858 100.254 9.1335 99.3085C8.87255 98.5864 8.87255 98.4683 8.87255 62.2319C8.87255 25.8775 8.87255 25.8775 9.14655 25.1554C9.49885 24.1969 10.3992 23.2122 11.3256 22.7527L12.0693 22.3851L19.7676 22.3195L27.4658 22.2538L28.1965 21.9125C30.1145 21.0066 31.1453 19.0897 30.78 17.1072C30.506 15.6105 29.6187 14.4683 28.1965 13.7987L27.4658 13.4573L19.898 13.4442C15.7357 13.4311 11.9649 13.4705 11.5082 13.523Z" fill="white"/><path d="M60.7641 13.5361C60.0073 13.7199 59.0939 14.2451 58.559 14.7965C57.3586 16.0438 56.9932 18.0525 57.6978 19.5886C58.1806 20.6258 58.9504 21.4267 59.929 21.8731L60.738 22.2538L83.898 22.3195L107.058 22.3851L107.75 22.7527C108.663 23.2385 109.354 23.9475 109.811 24.8928L110.19 25.6674L110.255 44.5076C110.32 62.2713 110.333 63.3742 110.555 63.8731C111.168 65.2648 112.212 66.1444 113.647 66.512C115.109 66.8928 116.635 66.4464 117.744 65.3435C118.044 65.0284 118.436 64.4901 118.619 64.1357L118.932 63.4792V43.9168V24.3545L118.566 23.1729C117.248 18.8534 114.182 15.5711 110.137 14.1532C108.05 13.4311 109.694 13.4704 84.4852 13.4442C71.1241 13.4311 61.0511 13.4704 60.7641 13.5361Z" fill="white"/><path d="M97.4026 26.9672C94.506 27.8993 92.6401 30.407 92.6401 33.3348C92.6532 37.4179 96.15 40.5164 100.13 39.9387C103.914 39.3873 106.445 35.7505 105.675 32.0087C105.192 29.6718 103.222 27.5842 100.939 26.9672C100.104 26.744 98.0942 26.744 97.4026 26.9672Z" fill="white"/><path d="M54.736 35.7243C42.3274 37.0109 32.5806 46.6346 31.054 59.1072C30.8191 60.9847 30.9496 65.1991 31.2889 67.0241C33.233 77.3041 40.8791 85.5098 50.8738 88.0175C53.1702 88.6083 54.8273 88.8052 57.3455 88.7921C61.7296 88.779 65.4222 87.8993 69.2191 85.9694C71.907 84.6039 74.1513 82.9365 76.3303 80.6521C80.1794 76.6477 82.5019 72 83.4675 66.3676C83.7806 64.5295 83.7806 59.9343 83.4675 58.0963C82.1627 50.4814 78.1439 44.2451 71.8026 39.9518C67.014 36.7221 60.5423 35.1203 54.736 35.7243ZM60.8946 44.8359C64.3653 45.6105 67.2881 47.2122 69.7411 49.6936C72.4159 52.372 74.0599 55.5886 74.7123 59.3435C75.0255 61.221 74.908 64.582 74.4514 66.407C72.6768 73.4836 67.014 78.6564 59.8246 79.7855C58.1545 80.035 55.3623 79.9431 53.6921 79.5755C50.1953 78.8009 47.39 77.2516 44.8848 74.7177C42.3143 72.1182 40.7877 69.2954 40.031 65.7374C39.6526 63.965 39.6265 60.7615 39.9788 59.0153C40.6834 55.4048 42.1447 52.5689 44.6499 49.9562C47.4161 47.0547 50.8216 45.2691 54.7882 44.6389C55.9103 44.4551 59.7986 44.5864 60.8946 44.8359Z" fill="white"/><path d="M104.866 75.6236C103.509 75.9781 102.413 76.884 101.813 78.1838L101.447 78.9716L101.408 86.1532L101.369 93.3479H94.3363C87.5775 93.3479 87.2774 93.361 86.5859 93.6105C85.5942 93.9912 84.7722 94.7659 84.2633 95.8162C83.885 96.5908 83.8328 96.814 83.8328 97.7462C83.8458 98.5996 83.9111 98.9409 84.1851 99.5317C84.6156 100.477 85.4116 101.291 86.3641 101.737L87.0947 102.079L94.245 102.118L101.382 102.158V108.945C101.382 114.656 101.408 115.864 101.578 116.521C102.087 118.464 103.561 119.711 105.505 119.842C107.397 119.961 108.872 119.133 109.733 117.453L110.19 116.547L110.229 109.352L110.268 102.158L117.405 102.118L124.542 102.079L125.416 101.646C126.408 101.16 126.982 100.569 127.465 99.5186C127.922 98.547 127.948 96.8796 127.517 95.9475C127.1 95.0284 126.173 94.0963 125.221 93.663L124.412 93.2823L117.34 93.2429L110.268 93.2035L110.229 86.0875L110.19 78.9716L109.811 78.1575C108.963 76.3063 106.732 75.1641 104.866 75.6236Z" fill="white"/></g><defs><clipPath id="clip0"><rect width="128" height="120" fill="white"/></clipPath></defs></svg>
