<svg width="512" height="512" viewBox="0 0 512 512" fill="none" xmlns="http://www.w3.org/2000/svg">
<path d="M60 47.5L169.5 129.5L251.5 104.5L348 129.5L454.5 47.5L469 186.5L454.5 233L494 324L469 398.5L399 459.5L263 474.5L128.5 459.5L50 410L22 324L50 242V195L60 47.5Z" fill="#FFD6D6"/>
<path d="M53.7 33.7C51.2 37.9 43.4 67.6 40.1 85.5C34.7 114.5 32.6 152.3 34.9 177.6C36.2 191.3 40 213.3 42.4 221.3L43.8 226.1L39.8 233.3C27.6 254.8 18.1 282 14.5 305.5C12.6 318.3 12.6 342.8 14.5 354.7C20.9 394.2 44.4 426.5 83.5 449.5C100.7 459.7 122.4 468.2 146.5 474.3C167.3 479.6 180.5 481.8 214 485.4C226.8 486.8 267.2 487.2 285 486.1C409.9 478.5 483.8 433.1 497.5 355.5C499.6 344.1 499.9 318.2 498.2 308.5C497.6 305.2 496.9 300.9 496.6 299C494.5 284.4 486.7 262.2 476.3 241.1L468.7 225.8L471.3 214.6C476.7 191.5 477.5 183 477.5 149.5C477.4 117.3 477 112.6 471.9 84.5C468.1 63.6 459.7 34.2 457.4 33.3C456 32.8 434.5 44.4 419.9 53.6C396.2 68.6 375.7 84.6 355.6 104L343.5 115.6L334.3 111.9C322.6 107.2 300.7 101.6 285.4 99.4C269.5 97.2 242.4 97.2 226.5 99.4C211.3 101.6 190.7 106.9 178 111.8L168.2 115.7L162.3 109.7C136.6 83.3 104.3 59.3 68.2 39.6C56.1 33 54.5 32.4 53.7 33.7ZM80.6 71.6C110.7 90.8 138.8 114.2 155.9 134.2L162.2 141.7L174.6 136.4C189.1 130.1 205.4 125 221.1 121.8C231.2 119.8 235.3 119.5 256.5 119.6C278.7 119.6 281.5 119.8 293.5 122.4C308.6 125.5 325.3 130.9 339.7 137.3L349.9 141.8L358.3 132.1C374.2 113.8 402 90.4 427 74.4C439.3 66.5 444.7 63.4 445.4 64C446.4 65.1 452.2 95.3 454.1 109.9C459.2 148.9 457 187.9 448.1 218.8L445.1 229.2L449.2 235.8C460.1 253.5 470.6 279.9 475.2 301C477.1 309.9 477.4 314.5 477.4 331C477.5 352.1 476.4 358.5 470.4 373.7C460.9 397.9 437.7 421.5 409.5 435.7C379.6 450.8 342 460.2 295.3 464.1C273.4 465.9 215.8 464.7 196 462.1C127.9 452.9 80.9 431.2 54.8 397C48 388.1 40.6 372.5 37.3 360.5C34.9 351.4 34.6 348.8 34.6 331.5C34.5 316.8 34.9 310.6 36.3 304C41.6 279.1 50.4 256.5 62.7 236.3L67.1 229L65 222.3C58.4 201.1 55.6 180.3 55.6 152.5C55.6 124.3 58 102.9 64.5 73.5C66.3 65 66.7 64 67.8 64C68.3 64 74.1 67.4 80.6 71.6Z" fill="#311800"/>
<path d="M84.5 120.7C81 130.1 78.9 160.6 80.9 176C82.9 192.2 84.1 200.4 84.6 201.2C84.9 201.6 87.4 199.2 90.2 195.7C97.6 186.6 117.1 167.9 129.8 157.5C135.9 152.5 140.9 148.2 140.9 147.7C141 147.3 139 147 136.5 147C127.7 147 121.1 141.7 115.8 130.4C112.7 123.7 111.3 122.8 101.6 120.5C92.8 118.4 85.4 118.5 84.5 120.7Z" fill="#311800"/>
<path d="M411.5 120.1C401.2 122.4 399.3 123.7 396.2 130.3C390.8 141.8 385.6 146.1 375.8 147L370.1 147.5L380.7 156C392.2 165.1 419.9 192.2 424 198.3C425.4 200.3 426.8 202 427.1 202C427.5 202 428.6 196.9 429.6 190.7C432.3 174.6 432.2 137.8 429.4 127L427.5 119.5L421.5 119.3C418.2 119.2 413.7 119.6 411.5 120.1Z" fill="#311800"/>
<path d="M133.8 246.9C126 249.4 118.9 254.1 112.9 260.9C104 270.8 95.7 291.5 98.9 295.4C99.7 296.3 101.1 297 102.2 297C105.2 297 112.9 292.6 119.9 287C132.1 277.2 148.4 271 161.9 271C170.1 271 181.3 273.7 195.3 278.9C211.2 285 215.2 284.3 211.1 276.2C205 264.3 184.8 250.8 166.8 246.5C157.9 244.4 141 244.6 133.8 246.9Z" fill="#311800"/>
<path d="M343.2 247C331.9 250 318.8 257.3 310.2 265.4C302.8 272.5 298.4 279 299.4 281.6C300.3 284 305.5 283.2 317.8 278.6C331.4 273.5 342.3 271 350.8 271C363.7 271 382 278.2 393 287.6C403.6 296.6 412.2 299.1 413.6 293.6C414.4 290.3 411.6 280.9 407.2 272.6C400.5 259.9 390.1 250.7 377.9 246.9C369.8 244.4 353.4 244.4 343.2 247Z" fill="#311800"/>
<path d="M242 309.3C220.6 314.3 221.2 329.5 243.4 342L249 345.2V354.7C249 365.9 247.8 370.5 243.7 375.6C233.9 387.5 214.6 384.3 208.6 369.8C207.7 367.7 207 364.7 207 363C207 359.2 203.1 355 199.5 355C198 355 195.8 356.1 194.3 357.6C192 359.9 191.8 360.6 192.4 365.8C193.3 373.5 198 382.8 203.6 388C217.8 401 237.6 400.9 252.7 387.7L256 384.8L259.3 387.7C264.7 392.4 269.3 394.9 275.9 396.6C296.4 401.8 317.1 387.2 319.6 365.8C320.2 360.6 320 360 317.7 357.6C316.2 356.1 314 355 312.5 355C308.7 355 305 359.2 305 363.4C305 370.4 300.3 377.2 292.8 381.1C286.1 384.5 275.9 383 270.2 377.7C265.2 373.1 263.6 368.3 263.2 356.4L262.8 345.3L268.2 342.6C274.1 339.6 281.2 333.4 284.2 328.5C288.5 321.4 284.3 313.4 274.7 310.4C267.8 308.3 249.1 307.7 242 309.3Z" fill="#492605"/>
<path d="M112 334.6C110.6 334.8 99.2 335.6 86.5 336.5C73.9 337.4 62.5 338.5 61.3 339C59.6 339.7 59 340.8 59 343.3C59 348.1 60.5 349 67.9 348.9C82.6 348.8 119.8 345.4 121.4 344.1C123.5 342.3 123.4 337.7 121.2 335.7C119.4 334.1 117.8 333.9 112 334.6Z" fill="#DB0090"/>
<path d="M391.2 335.6C388 337.8 388.5 342.9 392 344.6C394.4 345.8 434.6 349.1 445.6 349C449.4 349 451.2 348.5 452.5 347C454.7 344.5 453.8 340.3 450.7 339C449.5 338.5 438.4 337.4 426 336.6C413.6 335.7 401.3 334.7 398.5 334.4C394.8 334.1 392.9 334.4 391.2 335.6Z" fill="#DB0090"/>
<path d="M98.5 371.3C87.5 375.8 77.9 379.9 77.2 380.3C75.7 381.3 75.6 387.2 77.2 388.8C79.4 391 83.4 390 104 381.7C120.4 375 124.8 372.9 125.9 370.8C127.2 368.5 127.2 367.9 125.7 365.6C124.5 363.8 123.1 363 121.2 363.1C119.7 363.1 109.5 366.9 98.5 371.3Z" fill="#DB0090"/>
<path d="M387.2 364.2C385.6 365.8 385.7 371.5 387.3 372.7C389.7 374.6 429 390 431.3 390C432.6 390 434.1 389.5 434.8 388.8C436.4 387.2 436.3 381.5 434.8 380.3C432.6 378.6 392.6 363 390.5 363C389.3 363 387.9 363.5 387.2 364.2Z" fill="#DB0090"/>
</svg>
