<svg width="732" height="42" viewBox="0 0 732 42" fill="none" xmlns="http://www.w3.org/2000/svg"><path d="M181 33.9999C44.5 16.5 1.5 -6.10352e-05 1.5 -6.10352e-05H366H730.5C730.5 -6.10352e-05 690 4.5 618 29.5C546 54.5 491.5 -6.10352e-05 366 -6.10352e-05C240.5 -6.10352e-05 317.5 51.4999 181 33.9999Z" fill="#ABEBFF" fill-opacity="0.63"/><path d="M116.58 31.4572C186.127 10.991 181 7.91464 266 31.4572C305.857 42.4964 325 50.0285 370 25.0142C415 -3.53424e-05 500.211 39.6118 526.5 25.0142C576 -2.47137 613.96 14.4666 662.24 25.0142C678.173 28.4951 683.5 26.4999 701.5 13.5C719.5 0.500087 732 -2.28882e-05 732 -2.28882e-05L3.65068e-06 -8.68817e-05C3.65068e-06 -8.68817e-05 36.5 7.5 57 25.5C77.5 43.5 90.4379 39.1501 116.58 31.4572Z" fill="#5EB0FC"/></svg>
