<svg width="732" height="53" viewBox="0 0 732 52" fill="none" xmlns="http://www.w3.org/2000/svg"><path d="M221.5 17.5C102.5 38 15 51.5 15 51.5L722 52C722 52 539.5 39.5001 497 23C454.5 6.49993 399.5 3.00007 329.5 36.5C259.5 69.9999 340.5 -3.00003 221.5 17.5Z" fill="#ABEBFF" fill-opacity="0.63"/><path d="M0 52.4999C0 52.4999 32.5 52 64 30C95.5 7.99997 125.021 -4.14136 180 21.4999C299 76.9998 302.5 -24.5 375.5 7.00003C448.5 38.5001 498.5 68.9999 539 21.4999C558.324 -1.16376 611 -1.50003 654 25C697 51.5 731.5 52.4999 731.5 52.4999L0 52.4999Z" fill="#5EB0FC"/></svg>
